<?xml version="1.0" encoding="utf-8"?>
<svg xmlns="http://www.w3.org/2000/svg" xmlns:svg="http://www.w3.org/2000/svg" version="1.1" viewBox="0 0 1400 340">
	<title>The titlepage for the Standard Ebooks edition of Antic Hay, by Aldous Huxley</title>
	<g aria-label="ANTIC HAY">
		<path d="M 460.38158,52.807016 H 444.10087 L 412.94298,130 h 18.90058 l 5.70761,-15.4386 h 29.38011 L 472.63889,130 h 18.90058 z m 0.5614,46.31579 h -17.40351 l 8.60819,-22.45614 h 0.18713 z"/>
		<path d="m 517.04971,82.093566 h 0.18713 L 547.9269,130 h 17.59064 V 52.807016 H 547.9269 v 47.906434 h -0.18714 L 517.04971,52.807016 H 499.45906 V 130 h 17.59065 z"/>
		<path d="m 572.32748,68.245613 h 18.33918 V 130 h 17.59065 V 68.245613 h 18.33918 V 52.807016 h -54.26901 z"/>
		<path d="M 655.52193,52.807016 H 637.93129 V 130 h 17.59064 z"/>
		<path d="m 709.9576,114.09357 c -17.68421,0 -25.45029,-12.35088 -25.45029,-22.736846 0,-10.292397 7.76608,-22.643275 25.45029,-22.643275 8.98246,0 15.1579,4.77193 15.1579,4.77193 l 7.48538,-14.97076 c 0,0 -8.60819,-7.111112 -25.35673,-7.111112 -21.89474,0 -41.82456,17.964913 -41.82456,40.140352 0,22.081871 20.02339,39.859651 41.82456,39.859651 16.74854,0 25.35673,-7.11111 25.35673,-7.11111 l -7.48538,-14.97076 c 0,0 -6.17544,4.77193 -15.1579,4.77193 z"/>
		<path d="m 792.59795,99.029239 h 24.88889 V 130 h 17.59065 V 52.807016 H 817.48684 V 83.590642 H 792.59795 V 52.807016 H 775.00731 V 130 h 17.59064 z"/>
		<path d="m 890.48393,52.807016 h -16.2807 L 843.04533,130 h 18.90059 l 5.7076,-15.4386 h 29.38012 L 902.74124,130 h 18.90059 z m 0.5614,46.31579 h -17.4035 l 8.60818,-22.45614 h 0.18714 z"/>
		<path d="m 912.73393,52.807016 28.44445,42.5731 V 130 h 17.59064 V 95.380116 l 28.44445,-42.5731 h -21.1462 L 949.9737,77.508771 933.88013,52.807016 Z"/>
	</g>
	<g aria-label="ALDOUS HUXLEY">
		<path d="M 394.19792,232.10526 H 381.98739 L 358.61897,290 h 14.17544 l 4.2807,-11.57895 H 399.1102 L 403.3909,290 h 14.17544 z m 0.42105,34.73685 H 381.56634 L 388.02248,250 h 0.14035 z"/>
		<path d="M 437.94902,232.10526 H 424.75603 V 290 h 33.12281 v -11.57895 h -19.92982 z"/>
		<path d="M 469.36678,232.10526 V 290 h 16.77193 c 15.92983,0 29.19299,-12.07018 29.19299,-28.98246 0,-16.8421 -13.33334,-28.91228 -29.19299,-28.91228 z m 13.19299,46.10527 v -34.31579 h 2.03508 c 9.82456,0 16.49123,7.50877 16.49123,17.19298 -0.0702,9.68421 -6.73684,17.12281 -16.49123,17.12281 z"/>
		<path d="m 523.5795,261.01754 c 0,16.91228 12.07017,30.03509 29.19298,30.03509 16.63158,0 29.12281,-13.12281 29.12281,-30.03509 0,-16.91228 -13.05264,-29.96491 -29.12281,-29.96491 -15.92983,0 -29.19298,13.05263 -29.19298,29.96491 z m 14.24561,0 c 0,-8.63157 4.77193,-17.26315 14.94737,-17.26315 10.24561,0 14.87719,8.63158 14.87719,17.26315 0,8.63158 -4.35088,17.26316 -14.87719,17.26316 -10.80702,0 -14.94737,-8.63158 -14.94737,-17.26316 z"/>
		<path d="m 637.20779,232.10526 h -13.19298 v 33.47369 c 0,9.68421 -2.94737,12.49123 -9.40351,12.49123 -6.45614,0 -9.40351,-2.80702 -9.40351,-12.49123 v -33.47369 h -13.19298 v 37.33334 c 0,14.31579 7.85965,21.61403 22.59649,21.61403 14.73684,0 22.59649,-7.29824 22.59649,-21.61403 z"/>
		<path d="m 669.89969,231.05263 c -9.33334,0 -18.8772,6.8772 -18.8772,17.68421 0,6.03509 4.07018,11.4386 11.01755,14.8772 6.87719,3.43859 13.05263,5.33333 13.05263,9.54385 0,5.40351 -5.47369,5.68422 -8.35088,5.68422 -6.45614,0 -14.17544,-6.52632 -14.17544,-6.52632 l -6.59649,11.08772 c 0,0 8.21053,7.64912 21.75439,7.64912 11.29824,0 21.82456,-4.8421 21.82456,-18.66666 0,-7.57895 -7.08772,-13.05264 -13.54386,-15.78948 -6.59649,-2.80702 -12.07018,-5.12281 -12.07018,-8.35088 0,-3.15789 2.38597,-5.19298 6.8772,-5.19298 5.96491,0 11.71929,4 11.71929,4 l 5.33334,-10.52631 c 0,0 -7.4386,-5.47369 -17.96491,-5.47369 z"/>
		<path d="m 738.09704,266.77193 h 18.66667 V 290 h 13.19298 v -57.89474 h -13.19298 v 23.08772 H 738.09704 V 232.10526 H 724.90406 V 290 h 13.19298 z"/>
		<path d="m 827.84924,232.10526 h -13.19299 v 33.47369 c 0,9.68421 -2.94736,12.49123 -9.4035,12.49123 -6.45614,0 -9.40351,-2.80702 -9.40351,-12.49123 v -33.47369 h -13.19298 v 37.33334 c 0,14.31579 7.85964,21.61403 22.59649,21.61403 14.73684,0 22.59649,-7.29824 22.59649,-21.61403 z"/>
		<path d="m 894.75385,290 -22.5965,-31.15789 18.94737,-26.73685 H 874.68367 L 864.017,247.89474 853.35034,232.10526 h -15.7193 L 855.87665,258.84211 833.98192,290 h 16.35087 L 864.017,270.2807 877.70121,290 Z"/>
		<path d="M 914.8295,232.10526 H 901.63651 V 290 h 33.12281 V 278.42105 H 914.8295 Z"/>
		<path d="M 979.37004,232.10526 H 946.24723 V 290 h 33.12281 v -11.57895 h -19.92983 v -11.64912 h 19.08772 v -11.57895 h -19.08772 v -11.50877 h 19.92983 z"/>
		<path d="m 985.63872,232.10526 21.33328,31.92983 V 290 h 13.193 v -25.96491 l 21.3334,-31.92983 h -15.8597 l -12.0702,18.52632 -12.0701,-18.52632 z"/>
	</g>
</svg>
