<?xml version="1.0" encoding="utf-8"?>
<svg xmlns="http://www.w3.org/2000/svg" xmlns:svg="http://www.w3.org/2000/svg" version="1.1" viewBox="0 0 1400 340">
	<title>The titlepage for the Standard Ebooks edition of Antic Hay, by Aldous Huxley</title>
	<g aria-label="ANTIC HAY">
		<path d="m 462.89473,70.880847 -12.51827,33.945543 h 25.08224 z m -5.20833,-9.09174 h 10.46235 L 494.14473,130 h -9.59429 l -6.21346,-17.49817 H 447.58954 L 441.37609,130 h -9.73136 z"/>
		<path d="m 509.05884,61.789107 h 12.4269 l 30.24489,57.063233 V 61.789107 h 8.95468 V 130 H 548.2584 L 518.01352,72.936768 V 130 h -8.95468 z"/>
		<path d="m 574.5943,61.789107 h 57.70285 V 69.55592 H 608.08297 V 130 h -9.27449 V 69.55592 H 574.5943 Z"/>
		<path d="m 646.25182,61.789107 h 9.2288 V 130 h -9.2288 z"/>
		<path d="m 729.92507,67.043128 v 9.731359 q -4.66009,-4.340277 -9.9598,-6.487573 -5.25402,-2.147295 -11.19334,-2.147295 -11.69591,0 -17.90936,7.17288 -6.21345,7.127193 -6.21345,20.650585 0,13.477706 6.21345,20.650586 6.21345,7.12719 17.90936,7.12719 5.93932,0 11.19334,-2.14729 5.29971,-2.1473 9.9598,-6.48758 v 9.63999 q -4.84284,3.28947 -10.27961,4.93421 -5.39108,1.64474 -11.42178,1.64474 -15.48794,0 -24.39693,-9.45724 -8.90899,-9.50292 -8.90899,-25.904606 0,-16.447369 8.90899,-25.904606 8.90899,-9.502924 24.39693,-9.502924 6.12208,0 11.51316,1.644737 5.43677,1.59905 10.18823,4.842837 z"/>
		<path d="m 784.05886,61.789107 h 9.2288 v 27.960527 h 33.53436 V 61.789107 h 9.2288 V 130 h -9.2288 V 97.516447 H 793.28766 V 130 h -9.2288 z"/>
		<path d="m 882.21492,70.880847 -12.51827,33.945543 h 25.08224 z m -5.20833,-9.09174 h 10.46235 L 913.46492,130 h -9.59429 l -6.21345,-17.49817 H 866.90973 L 860.69628,130 h -9.73136 z"/>
		<path d="m 911.70322,61.789107 h 9.91411 l 18.91447,28.051901 18.77741,-28.051901 h 9.91411 l -24.12281,35.72734 V 130 h -9.27448 V 97.516447 Z"/>
	</g>
	<g aria-label="ALDOUS HUXLEY">
		<path d="m 397.38487,245.66064 -9.38871,25.45915 h 18.81168 z m -3.90625,-6.81881 h 7.84677 L 420.82237,290 h -7.19572 l -4.66009,-13.12363 H 385.90598 L 381.24589,290 h -7.29852 z"/>
		<path d="m 433.25795,238.84183 h 6.9216 v 45.33306 h 24.91091 V 290 h -31.83251 z"/>
		<path d="m 484.24205,244.52988 v 39.78207 h 8.36075 q 10.58799,0 15.48793,-4.79715 4.93422,-4.79715 4.93422,-15.14528 0,-10.27961 -4.93422,-15.04249 -4.89994,-4.79715 -15.48793,-4.79715 z m -6.9216,-5.68805 h 14.22012 q 14.87116,0 21.82703,6.20203 6.95586,6.16776 6.95586,19.32566 0,13.22642 -6.99013,19.42845 Q 506.3432,290 491.54057,290 h -14.22012 z"/>
		<path d="m 557.08744,243.53618 q -7.53838,0 -11.99287,5.61952 -4.42023,5.61952 -4.42023,15.31661 0,9.66283 4.42023,15.28235 4.45449,5.61952 11.99287,5.61952 7.53838,0 11.92434,-5.61952 4.42023,-5.61952 4.42023,-15.28235 0,-9.69709 -4.42023,-15.31661 -4.38596,-5.61952 -11.92434,-5.61952 z m 0,-5.61951 q 10.75932,0 17.20121,7.22999 6.44188,7.19572 6.44188,19.32565 0,12.09567 -6.44188,19.32566 -6.44189,7.19573 -17.20121,7.19573 -10.79358,0 -17.26973,-7.19573 -6.44189,-7.19572 -6.44189,-19.32566 0,-12.12993 6.44189,-19.32565 6.47615,-7.22999 17.26973,-7.22999 z"/>
		<path d="m 595.77028,238.84183 h 6.95587 v 31.07867 q 0,8.22369 2.98109,11.85582 2.98108,3.59786 9.66283,3.59786 6.64747,0 9.62856,-3.59786 2.98108,-3.63213 2.98108,-11.85582 v -31.07867 h 6.95587 v 31.93531 q 0,10.00548 -4.96848,15.11102 -4.93421,5.10554 -14.59703,5.10554 -9.6971,0 -14.66557,-5.10554 -4.93422,-5.10554 -4.93422,-15.11102 z"/>
		<path d="m 683.6239,240.52083 v 6.75028 q -3.94051,-1.8846 -7.43558,-2.80976 -3.49506,-0.92517 -6.75027,-0.92517 -5.65379,0 -8.73767,2.19299 -3.04961,2.19298 -3.04961,6.23629 0,3.39227 2.02165,5.1398 2.05592,1.71327 7.74397,2.7755 l 4.18037,0.85663 q 7.74397,1.47341 11.41037,5.20833 3.70065,3.70066 3.70065,9.93696 0,7.43558 -5.00274,11.2733 -4.96847,3.83772 -14.59704,3.83772 -3.63212,0 -7.74397,-0.82237 -4.07757,-0.82237 -8.46354,-2.43284 v -7.1272 q 4.21464,2.36431 8.25795,3.5636 4.04331,1.19929 7.94956,1.19929 5.92791,0 9.14885,-2.33005 3.22094,-2.33004 3.22094,-6.64747 0,-3.76919 -2.33004,-5.89364 -2.29578,-2.12446 -7.57264,-3.18668 l -4.21464,-0.82237 q -7.74397,-1.54194 -11.20477,-4.83141 -3.4608,-3.28948 -3.4608,-9.14885 0,-6.78454 4.76288,-10.69079 4.79715,-3.90625 13.19216,-3.90625 3.59787,0 7.33279,0.65104 3.73492,0.65104 7.64117,1.95312 z"/>
		<path d="m 729.84237,238.84183 h 6.9216 v 20.9704 h 25.15077 v -20.9704 h 6.9216 V 290 h -6.9216 V 265.63734 H 736.76397 V 290 h -6.9216 z"/>
		<path d="m 786.82291,238.84183 h 6.95587 v 31.07867 q 0,8.22369 2.98108,11.85582 2.98109,3.59786 9.66283,3.59786 6.64748,0 9.62857,-3.59786 2.98108,-3.63213 2.98108,-11.85582 v -31.07867 h 6.95587 v 31.93531 q 0,10.00548 -4.96848,15.11102 -4.93421,5.10554 -14.59704,5.10554 -9.69709,0 -14.66557,-5.10554 -4.93421,-5.10554 -4.93421,-15.11102 z"/>
		<path d="m 841.54195,238.84183 h 7.43558 l 12.71245,19.01727 12.78097,-19.01727 h 7.43558 L 865.45917,263.41009 883.00303,290 h -7.43559 L 861.176,268.2415 846.68175,290 h -7.46984 l 18.26343,-27.30948 z"/>
		<path d="m 897.11758,238.84183 h 6.9216 v 45.33306 h 24.91091 V 290 h -31.83251 z"/>
		<path d="m 941.18008,238.84183 h 32.34649 v 5.82511 h -25.42489 v 15.14529 h 24.36266 v 5.82511 h -24.36266 v 18.53755 h 26.04166 V 290 h -32.96326 z"/>
		<path d="m 983.56358,238.84183 h 7.43558 l 14.18584,21.03893 14.0831,-21.03893 h 7.4356 l -18.0922,26.79551 V 290 h -6.9558 v -24.36266 z"/>
	</g>
</svg>
